<?xml version="1.0" encoding="utf-8"?>
<!-- Svg Vector Icons : http://www.onlinewebfonts.com/icon -->
<!DOCTYPE svg PUBLIC "-//W3C//DTD SVG 1.1//EN" "http://www.w3.org/Graphics/SVG/1.1/DTD/svg11.dtd">
<svg version="1.1" xmlns="http://www.w3.org/2000/svg" xmlns:xlink="http://www.w3.org/1999/xlink" x="0px" y="0px" viewBox="0 0 1000 1000" enable-background="new 0 0 1000 1000" xml:space="preserve">
<metadata> Svg Vector Icons : http://www.onlinewebfonts.com/icon </metadata>
<g><path d="M500,990c-270.2,0-490-219.8-490-490C10,229.8,229.8,10,500,10c270.2,0,490,219.8,490,489.9C990,770.2,770.2,990,500,990z M500,55.8C255,55.8,55.8,255,55.8,499.9c0,245,199.3,444.3,444.2,444.3c245,0,444.3-199.3,444.3-444.3C944.2,255,745,55.8,500,55.8z M500,853.6c-66.7,0-132-18.9-188.7-54.8c-5.9-3.8-9.7-9.9-10.5-16.8c-0.8-6.9,1.7-13.8,6.6-18.7l455.9-455.9c4.9-5,11.7-7.3,18.7-6.6c6.9,0.8,13.1,4.6,16.8,10.5c35.9,56.7,54.8,121.9,54.8,188.7C853.6,695,695,853.6,500,853.6z M360.9,774.4c43.1,21.9,90.6,33.4,139,33.4c169.8,0,307.9-138.1,307.9-307.9c0-48.4-11.5-95.9-33.4-139.1L360.9,774.4z M249.7,738.7c-0.3,0-0.6,0-0.8,0c-6.4-0.3-12.3-3.1-16.5-7.9c-55.5-64.3-86-146.2-86-230.8c0-195,158.6-353.6,353.7-353.6c84.5,0,166.5,30.5,230.8,86c4.8,4.2,7.7,10.1,7.9,16.5c0.2,6.3-2.2,12.5-6.7,17L265.8,732C261.5,736.3,255.7,738.7,249.7,738.7z M500,192.1c-169.8,0-307.9,138.1-307.9,307.9c0,65.4,21,129,59.5,181.6l429.9-430C628.9,213,565.3,192.1,500,192.1z"/></g>
</svg>